<?xml version="1.0" encoding="utf-8"?>
<!-- Generator: Adobe Illustrator 22.0.0, SVG Export Plug-In . SVG Version: 6.00 Build 0)  -->
<svg version="1.1" id="Layer_1" xmlns="http://www.w3.org/2000/svg" xmlns:xlink="http://www.w3.org/1999/xlink" x="0px" y="0px"
	 viewBox="0 0 155 33.6" style="enable-background:new 0 0 155 33.6;" xml:space="preserve">
<style type="text/css">
	.st0{fill:#FFFFFF;}
</style>
<g>
	<path class="st0" d="M78.3,30.6v-5.2h-2v-0.9h5.1v0.9h-2.1v5.2H78.3z"/>
	<path class="st0" d="M82.8,30.6v-6.1h4v0.9h-3v1.6H86v0.8h-2.3v1.9h3.1v0.9H82.8z"/>
	<path class="st0" d="M88.1,27.5c0-0.9,0.3-1.6,0.9-2.2c0.6-0.6,1.4-0.9,2.3-0.9c0.6,0,1.1,0.1,1.5,0.4c0.5,0.3,0.8,0.6,1.1,1
		l-0.7,0.5c-0.4-0.7-1.1-1-1.9-1c-0.6,0-1.1,0.2-1.6,0.6c-0.4,0.4-0.6,1-0.6,1.6c0,0.6,0.2,1.2,0.6,1.6c0.4,0.4,0.9,0.6,1.6,0.6
		c0.8,0,1.4-0.3,1.9-1l0.7,0.5c-0.3,0.4-0.6,0.8-1.1,1c-0.5,0.2-1,0.4-1.5,0.4c-0.9,0-1.6-0.3-2.3-0.9
		C88.4,29.1,88.1,28.4,88.1,27.5z"/>
	<path class="st0" d="M95.6,30.6v-6.1h1v2.4h3.1v-2.4h1v6.1h-1v-2.8h-3.1v2.8H95.6z"/>
	<path class="st0" d="M109.4,30.6l-0.4-1h-2.7l-0.4,1h-1l2.7-6.2h0.3l2.7,6.2H109.4z M108.6,28.7l-1-2.5l-1,2.5H108.6z"/>
	<path class="st0" d="M111.5,27.5c0-0.9,0.3-1.6,0.9-2.2c0.6-0.6,1.4-0.9,2.3-0.9c0.6,0,1.1,0.1,1.5,0.4c0.5,0.3,0.8,0.6,1.1,1
		l-0.7,0.5c-0.4-0.7-1.1-1-1.9-1c-0.6,0-1.1,0.2-1.6,0.6c-0.4,0.4-0.6,1-0.6,1.6c0,0.6,0.2,1.2,0.6,1.6c0.4,0.4,0.9,0.6,1.6,0.6
		c0.8,0,1.4-0.3,1.9-1l0.7,0.5c-0.3,0.4-0.6,0.8-1.1,1c-0.5,0.2-1,0.4-1.5,0.4c-0.9,0-1.6-0.3-2.3-0.9
		C111.8,29.1,111.4,28.4,111.5,27.5z"/>
	<path class="st0" d="M123,30.6l-0.4-1h-2.7l-0.4,1h-1l2.7-6.2h0.3l2.7,6.2H123z M122.2,28.7l-1-2.5l-1,2.5H122.2z"/>
	<path class="st0" d="M125.5,30.6v-6.1h1.9c1,0,1.8,0.3,2.4,0.8c0.6,0.6,0.9,1.3,0.9,2.2c0,0.9-0.3,1.6-0.9,2.2
		c-0.6,0.6-1.4,0.9-2.4,0.9H125.5z M126.5,29.7h0.9c0.7,0,1.3-0.2,1.7-0.6c0.4-0.4,0.6-0.9,0.6-1.6c0-0.6-0.2-1.2-0.6-1.6
		c-0.4-0.4-1-0.6-1.7-0.6h-0.9V29.7z"/>
	<path class="st0" d="M132.4,30.6v-6.1h4v0.9h-3v1.6h2.3v0.8h-2.3v1.9h3.1v0.9H132.4z"/>
	<path class="st0" d="M143.6,24.4h0.3v6.2h-1v-3.8l-1.7,2.3h-0.3l-1.7-2.3v3.8h-1v-6.2h0.3l2.5,3.4L143.6,24.4z"/>
	<path class="st0" d="M150.7,24.5l-2.1,3.6v2.4h-1v-2.4l-2.1-3.6h1.1l1.5,2.6l1.5-2.6H150.7z"/>
</g>
<g>
	<path class="st0" d="M22.4,4.9c0.5,0.5,1.2,0.8,2,0.8h9.8c0.8,0,1.4-0.3,2-0.8c0.6-0.5,0.8-1.2,0.8-2H21.6
		C21.6,3.7,21.8,4.4,22.4,4.9z"/>
	<path class="st0" d="M22.4,16.1c0.5,0.5,1.2,0.8,2,0.8h9.8c0.8,0,1.4-0.3,2-0.8c0.6-0.5,0.8-1.2,0.8-2H21.6
		C21.6,14.9,21.8,15.6,22.4,16.1z"/>
	<path class="st0" d="M22.4,10.5c0.5,0.5,1.2,0.8,2,0.8h9.8c0.8,0,1.4-0.3,2-0.8c0.6-0.5,0.8-1.2,0.8-2H21.6
		C21.6,9.3,21.8,10,22.4,10.5z"/>
	<path class="st0" d="M62.7,5.7h12.6v1.4c0,0.4-0.1,0.7-0.4,1c-0.3,0.3-0.6,0.4-1,0.4H62.7v8.4h2.8v-5.6h9.8c0.8,0,1.4-0.3,2-0.8
		c0.6-0.5,0.8-1.2,0.8-2V2.9H62.7V5.7z"/>
	<path class="st0" d="M84.4,2.9h-2.8v14h11.3c0.8,0,1.4-0.3,2-0.8c0.6-0.5,0.8-1.2,0.8-2H84.4V2.9z"/>
	<path class="st0" d="M99.2,4.9c0.5,0.5,1.2,0.8,2,0.8h9.8c0.8,0,1.4-0.3,2-0.8c0.6-0.5,0.8-1.2,0.8-2H98.4
		C98.4,3.7,98.7,4.4,99.2,4.9z"/>
	<polygon class="st0" points="98.4,16.9 101.2,16.9 101.2,11.3 111.1,11.3 111.1,16.9 113.9,16.9 113.9,8.5 98.4,8.5 	"/>
	<path class="st0" d="M117.3,5.7H130c0.8,0,1.4-0.3,2-0.8c0.6-0.5,0.8-1.2,0.8-2h-15.4V5.7z"/>
	<path class="st0" d="M120.5,13.7c-0.3-0.3-0.4-0.6-0.4-1V8.5h-2.8v5.6c0,0.8,0.3,1.4,0.8,2c0.5,0.5,1.2,0.8,2,0.8h9.8
		c0.8,0,1.4-0.3,2-0.8c0.6-0.5,0.8-1.2,0.8-2h-11.2C121.1,14.1,120.8,14,120.5,13.7z"/>
	<path class="st0" d="M139.4,5.7h9.8c0.8,0,1.4-0.3,2-0.8c0.6-0.5,0.8-1.2,0.8-2h-15.4c0,0.8,0.3,1.4,0.8,2
		C137.9,5.5,138.6,5.7,139.4,5.7z"/>
	<path class="st0" d="M137.4,10.5c0.5,0.5,1.2,0.8,2,0.8h9.8c0.8,0,1.4-0.3,2-0.8c0.6-0.5,0.8-1.2,0.8-2h-15.4
		C136.6,9.3,136.9,10,137.4,10.5z"/>
	<path class="st0" d="M137.4,16.1c0.5,0.5,1.2,0.8,2,0.8h9.8c0.8,0,1.4-0.3,2-0.8c0.6-0.5,0.8-1.2,0.8-2h-15.4
		C136.6,14.9,136.9,15.6,137.4,16.1z"/>
	<path class="st0" d="M15.3,2.9H9.4v0c-3.6,0-6.7,0-6.7,0c0,0.8,0.3,1.4,0.8,2c0.5,0.5,1.2,0.8,2,0.8h8.4c0.4,0,0.7,0.1,1,0.4
		c0.3,0.3,0.4,0.6,0.4,1v5.6c0,0.4-0.1,0.7-0.4,1c-0.3,0.3-0.6,0.4-1,0.4H5.5V8.5H2.7v8.4h12.6c0.8,0,1.4-0.3,2-0.8
		c0.6-0.5,0.8-1.2,0.8-2v-5V6.5V5.7c0-0.8-0.3-1.5-0.8-2C16.7,3.2,16.1,2.9,15.3,2.9z"/>
	<g>
		<path class="st0" d="M43.3,2.9c-0.8,0-1.5,0.3-2,0.8c-0.5,0.6-0.8,1.2-0.8,2v4.4v3.3l2.8-3.2V2.9z"/>
		<polygon class="st0" points="40.6,16.9 41.6,16.9 44.5,16.9 56.6,2.9 52.8,2.9 		"/>
	</g>
	<path class="st0" d="M45.3,7.8"/>
	<path class="st0" d="M40.6,13.3"/>
</g>
</svg>
