<svg xmlns="http://www.w3.org/2000/svg" width="800" height="137.426" viewBox="0 0 800 137.426">
  <g id="logo-blanco_2_" data-name="logo-blanco (2)" transform="translate(-2.7 -2.9)">
    <g id="Group_1" data-name="Group 1" transform="translate(397.074 109.566)">
      <path id="Path_1" data-name="Path 1" d="M87.017,54.764v-25.8H76.3V24.5h27.327v4.465H92.375v25.8Z" transform="translate(-76.3 -24.004)"/>
      <path id="Path_2" data-name="Path 2" d="M82.8,54.764V24.5h21.433v4.465H88.158V36.9H99.947v3.969H87.623V50.3h16.611v4.465H82.8Z" transform="translate(-47.971 -24.004)"/>
      <path id="Path_3" data-name="Path 3" d="M88.1,39.78a14.063,14.063,0,0,1,4.823-10.915A17.73,17.73,0,0,1,105.247,24.4c3.215,0,5.894.5,8.038,1.984a18.654,18.654,0,0,1,5.894,4.961l-3.751,2.481c-2.143-3.473-5.894-4.961-10.181-4.961a13.772,13.772,0,0,0-8.573,2.977,10.805,10.805,0,0,0-3.215,7.938,10.805,10.805,0,0,0,3.215,7.938c2.143,1.985,4.823,2.977,8.573,2.977a11.892,11.892,0,0,0,10.181-4.961l3.751,2.481c-1.608,1.985-3.215,3.969-5.894,4.961s-5.358,1.985-8.038,1.985a18.7,18.7,0,0,1-12.324-4.465A14.063,14.063,0,0,1,88.1,39.78Z" transform="translate(-24.872 -24.4)"/>
      <path id="Path_4" data-name="Path 4" d="M95.6,54.764V24.5h5.358V36.407h16.611V24.5h5.358V54.764h-5.358V40.872H100.958V54.764Z" transform="translate(7.816 -24.004)"/>
      <path id="Path_5" data-name="Path 5" d="M129.013,55.16,126.869,50.2H112.4l-2.143,4.961H104.9L119.368,24.4h1.608l14.467,30.76Zm-4.287-9.426-5.358-12.4-5.358,12.4Z" transform="translate(48.348 -24.4)"/>
      <path id="Path_6" data-name="Path 6" d="M111.567,39.78a14.063,14.063,0,0,1,4.823-10.915A17.73,17.73,0,0,1,128.714,24.4c3.215,0,5.894.5,8.038,1.984a18.654,18.654,0,0,1,5.894,4.961l-3.751,2.481c-2.143-3.473-5.894-4.961-10.181-4.961a13.772,13.772,0,0,0-8.573,2.977,10.805,10.805,0,0,0-3.215,7.938,10.805,10.805,0,0,0,3.215,7.938c2.143,1.985,4.823,2.977,8.573,2.977a11.892,11.892,0,0,0,10.181-4.961l3.751,2.481c-1.608,1.985-3.215,3.969-5.894,4.961s-5.358,1.985-8.038,1.985a18.7,18.7,0,0,1-12.324-4.465C113.174,47.718,111.031,44.245,111.567,39.78Z" transform="translate(77.047 -24.4)"/>
      <path id="Path_7" data-name="Path 7" d="M142.613,55.16,140.469,50.2H126l-2.143,4.961H118.5L132.968,24.4h1.608l14.467,30.76Zm-4.287-9.426-5.358-12.4-5.358,12.4Z" transform="translate(107.622 -24.4)"/>
      <path id="Path_8" data-name="Path 8" d="M125.5,54.764V24.5h10.181a20.571,20.571,0,0,1,12.86,3.969,14.062,14.062,0,0,1,4.823,10.915A14.063,14.063,0,0,1,148.541,50.3q-4.822,4.465-12.86,4.465Zm5.358-4.465h4.822c3.751,0,6.966-.992,9.109-2.977a10.061,10.061,0,0,0,3.215-7.938,10.805,10.805,0,0,0-3.215-7.938c-2.143-1.984-5.358-2.977-9.109-2.977h-4.823V50.3Z" transform="translate(138.13 -24.004)"/>
      <path id="Path_9" data-name="Path 9" d="M132.4,54.764V24.5h21.433v4.465H137.758V36.9h12.324v3.969H137.758V50.3h16.611v4.465H132.4Z" transform="translate(168.203 -24.004)"/>
      <path id="Path_10" data-name="Path 10" d="M167.135,24.4h1.607V55.16h-5.358V36.307l-9.109,11.411h-1.608l-9.109-11.411V55.16H138.2V24.4h1.607l13.4,16.868Z" transform="translate(193.481 -24.4)"/>
      <path id="Path_11" data-name="Path 11" d="M173.364,24.5,162.111,42.36V54.267h-5.358V42.36L145.5,24.5h5.894l8.038,12.9,8.038-12.9Z" transform="translate(225.297 -24.004)"/>
    </g>
    <g id="Group_3" data-name="Group 3" transform="translate(2.7 2.9)">
      <path id="Path_12" data-name="Path 12" d="M25.887,12.822A15.608,15.608,0,0,0,36.6,16.791H89.115a16.638,16.638,0,0,0,10.717-3.969c3.215-2.481,4.287-5.953,4.287-9.922H21.6C21.6,6.869,22.672,10.342,25.887,12.822Z" transform="translate(79.673 -2.9)"/>
      <path id="Path_13" data-name="Path 13" d="M25.887,24.022A15.608,15.608,0,0,0,36.6,27.991H89.115a16.638,16.638,0,0,0,10.717-3.969c3.215-2.481,4.287-5.953,4.287-9.922H21.6C21.6,18.069,22.672,21.542,25.887,24.022Z" transform="translate(79.673 41.466)"/>
      <path id="Path_14" data-name="Path 14" d="M25.887,18.422A15.608,15.608,0,0,0,36.6,22.391H89.115a16.638,16.638,0,0,0,10.717-3.969c3.215-2.481,4.287-5.953,4.287-9.922H21.6C21.6,12.469,22.672,15.942,25.887,18.422Z" transform="translate(79.673 19.283)"/>
      <path id="Path_15" data-name="Path 15" d="M62.7,16.791h67.515v6.946a6.132,6.132,0,0,1-2.143,4.961,7.177,7.177,0,0,1-5.358,1.985H62.7V72.357h15V44.574h52.512a16.638,16.638,0,0,0,10.717-3.969c3.215-2.481,4.287-5.953,4.287-9.922V2.9H62.7Z" transform="translate(258.8 -2.9)"/>
      <path id="Path_16" data-name="Path 16" d="M96.6,2.9h-15V72.357h60.549a16.638,16.638,0,0,0,10.717-3.969c3.215-2.481,4.287-5.953,4.287-9.922H96.6Z" transform="translate(341.173 -2.9)"/>
      <path id="Path_17" data-name="Path 17" d="M102.687,12.822A15.608,15.608,0,0,0,113.4,16.791h52.512a16.637,16.637,0,0,0,10.717-3.969c3.215-2.481,4.287-5.953,4.287-9.922H98.4A13.336,13.336,0,0,0,102.687,12.822Z" transform="translate(414.393 -2.9)"/>
      <path id="Path_18" data-name="Path 18" d="M98.4,50.174h15V22.391h53.048V50.174h15V8.5H98.4Z" transform="translate(414.393 19.283)"/>
      <path id="Path_19" data-name="Path 19" d="M117.3,16.791h68.051a16.638,16.638,0,0,0,10.717-3.969c3.215-2.481,4.287-5.953,4.287-9.922H117.836V16.791Z" transform="translate(496.766 -2.9)"/>
      <path id="Path_20" data-name="Path 20" d="M134.447,34.3a6.131,6.131,0,0,1-2.143-4.961V8.5h-15V36.283c0,3.969,1.608,6.946,4.287,9.922A15.608,15.608,0,0,0,132.3,50.174h52.512a16.637,16.637,0,0,0,10.717-3.969c3.215-2.481,4.287-5.953,4.287-9.922H139.805A7.177,7.177,0,0,1,134.447,34.3Z" transform="translate(496.766 19.283)"/>
      <path id="Path_21" data-name="Path 21" d="M151.6,16.791h52.512a16.638,16.638,0,0,0,10.717-3.969c3.215-2.481,4.287-5.953,4.287-9.922H136.6c0,3.969,1.608,6.946,4.287,9.922S147.317,16.791,151.6,16.791Z" transform="translate(580.881 -2.9)"/>
      <path id="Path_22" data-name="Path 22" d="M140.887,18.422A15.608,15.608,0,0,0,151.6,22.391h52.512a16.638,16.638,0,0,0,10.717-3.969c3.215-2.481,4.287-5.953,4.287-9.922H136.6A13.336,13.336,0,0,0,140.887,18.422Z" transform="translate(580.881 19.283)"/>
      <path id="Path_23" data-name="Path 23" d="M140.887,24.022A15.608,15.608,0,0,0,151.6,27.991h52.512a16.638,16.638,0,0,0,10.717-3.969c3.215-2.481,4.287-5.953,4.287-9.922H136.6A13.336,13.336,0,0,0,140.887,24.022Z" transform="translate(580.881 41.466)"/>
      <path id="Path_24" data-name="Path 24" d="M70.215,2.9H2.7c0,3.969,1.608,6.946,4.287,9.922A15.608,15.608,0,0,0,17.7,16.791h45.01a7.177,7.177,0,0,1,5.358,1.984,6.132,6.132,0,0,1,2.143,4.961V51.52a6.132,6.132,0,0,1-2.143,4.961,7.177,7.177,0,0,1-5.358,1.984H17.7V30.683H2.7V72.357H70.215a16.638,16.638,0,0,0,10.717-3.969c3.215-2.481,4.287-5.953,4.287-9.922V16.791a13.336,13.336,0,0,0-4.287-9.922A16.638,16.638,0,0,0,70.215,2.9Z" transform="translate(-2.7 -2.9)"/>
      <g id="Group_2" data-name="Group 2" transform="translate(202.545 0)">
        <path id="Path_25" data-name="Path 25" d="M55.5,2.9A15.608,15.608,0,0,0,44.787,6.869C42.107,9.846,40.5,12.822,40.5,16.791v38.2l15-15.876Z" transform="translate(-40.5 -2.9)"/>
        <path id="Path_26" data-name="Path 26" d="M40.6,72.357H61.5L126.333,2.9H105.972Z" transform="translate(-40.064 -2.9)"/>
      </g>
      <path id="Path_27" data-name="Path 27" d="M45.3,7.8" transform="translate(182.965 16.51)"/>
      <path id="Path_28" data-name="Path 28" d="M40.6,13.3" transform="translate(162.481 38.297)"/>
    </g>
  </g>
</svg>
